# xmcd CD database file
#
# Track frame offsets:
#	150
#	18831
#	36800
#	54832
#	70790
#	89474
#	107784
#	124956
#	139219
#	163891
#
# Disc length: 2361 seconds
#
# Revision: 0
# Processed by: cddbd v1.5.2PL0 Copyright (c) Steve Scherf et al.
# Submitted via: CDex 1.70beta2
#
DISCID=8509370a
DTITLE=Circle of Fate - Back to Life
DYEAR=2009
DGENRE=Salsa
TTITLE0=Sanctify
TTITLE1=Skeletons 
TTITLE2=My Religion
TTITLE3=What If
TTITLE4=Broke My Heart
TTITLE5=Unshattered
TTITLE6=Your Gone
TTITLE7=Pour Me a Drink
TTITLE8=Fill the Void
TTITLE9=It's All About You
EXTD=YEAR: 2009
EXTT0=
EXTT1=
EXTT2=
EXTT3=
EXTT4=
EXTT5=
EXTT6=
EXTT7=
EXTT8=
EXTT9=
PLAYORDER=
